<svg width="417" height="59" viewBox="0 0 417 59" fill="none" xmlns="http://www.w3.org/2000/svg">
<rect x="159" y="4" width="258" height="55" fill="#16DA12"/>
<rect y="4" width="159" height="55" fill="#EB1C1C"/>
<path d="M37.2038 43.4062H19.5788L15.8913 54H7.6725L24.86 8.5H31.9538L49.1725 54H40.9225L37.2038 43.4062ZM21.7975 37.0312H34.985L28.3913 18.1562L21.7975 37.0312ZM79.9338 14.875H58.9338V54H51.0588V8.5H79.9338V14.875ZM90.9137 37.0938V54H83.0075V8.5H100.414C105.497 8.5 109.528 9.82292 112.507 12.4688C115.507 15.1146 117.007 18.6146 117.007 22.9688C117.007 27.4271 115.539 30.8958 112.601 33.375C109.685 35.8542 105.591 37.0938 100.32 37.0938H90.9137ZM90.9137 30.75H100.414C103.226 30.75 105.372 30.0938 106.851 28.7812C108.33 27.4479 109.07 25.5312 109.07 23.0312C109.07 20.5729 108.32 18.6146 106.82 17.1562C105.32 15.6771 103.257 14.9167 100.632 14.875H90.9137V30.75ZM156.738 32.4375C156.738 36.8958 155.967 40.8125 154.425 44.1875C152.883 47.5417 150.675 50.125 147.8 51.9375C144.946 53.7292 141.654 54.625 137.925 54.625C134.238 54.625 130.946 53.7292 128.05 51.9375C125.175 50.125 122.946 47.5521 121.363 44.2188C119.8 40.8854 119.008 37.0417 118.988 32.6875V30.125C118.988 25.6875 119.769 21.7708 121.331 18.375C122.915 14.9792 125.133 12.3854 127.988 10.5938C130.863 8.78125 134.154 7.875 137.863 7.875C141.571 7.875 144.852 8.77083 147.706 10.5625C150.581 12.3333 152.8 14.8958 154.363 18.25C155.925 21.5833 156.717 25.4688 156.738 29.9062V32.4375ZM148.831 30.0625C148.831 25.0208 147.873 21.1562 145.956 18.4688C144.06 15.7812 141.363 14.4375 137.863 14.4375C134.446 14.4375 131.769 15.7812 129.831 18.4688C127.915 21.1354 126.935 24.9167 126.894 29.8125V32.4375C126.894 37.4375 127.863 41.3021 129.8 44.0312C131.758 46.7604 134.467 48.125 137.925 48.125C141.425 48.125 144.113 46.7917 145.988 44.125C147.883 41.4583 148.831 37.5625 148.831 32.4375V30.0625ZM204.51 14.875H190.322V54H182.479V14.875H168.416V8.5H204.51V14.875ZM233.584 33.6875H214.896V47.6875H236.74V54H206.99V8.5H236.521V14.875H214.896V27.4375H233.584V33.6875ZM255.314 24.9375L264.876 8.5H274.001L260.251 31.0625L274.314 54H265.095L255.314 37.3125L245.501 54H236.314L250.408 31.0625L236.626 8.5H245.751L255.314 24.9375ZM312.763 54H304.888V33.7812H284.544V54H276.638V8.5H284.544V27.4375H304.888V8.5H312.763V54ZM326.961 54H319.086V8.5H326.961V54ZM346.629 34.5H341.254V54H333.379V8.5H341.254V27.625H345.597L358.972 8.5H368.66L353.035 30.2812L370.035 54H360.535L346.629 34.5ZM396.359 43.4062H378.734L375.046 54H366.828L384.015 8.5H391.109L408.328 54H400.078L396.359 43.4062ZM380.953 37.0312H394.14L387.546 18.1562L380.953 37.0312Z" fill="#EEEEEE"/>
</svg>
