<svg width="404" height="93" viewBox="0 0 404 93" fill="none" xmlns="http://www.w3.org/2000/svg">
<rect width="404" height="93" rx="46.5" transform="matrix(-1 0 0 1 404 0)" fill="#EB1C1C"/>
<path d="M50 49.9922H45.3125V66H42.4297V31.875H45.3125V47.5312H49.8594L63.0547 31.875H66.6875L52.6719 48.6562L67.7188 66H64.1328L50 49.9922ZM95.7575 50.7891C95.7575 53.9297 95.2106 56.6875 94.1169 59.0625C93.0387 61.4375 91.4919 63.2656 89.4762 64.5469C87.4606 65.8281 85.1325 66.4688 82.4919 66.4688C78.5075 66.4688 75.2887 65.0469 72.8356 62.2031C70.3825 59.3438 69.1559 55.4922 69.1559 50.6484V47.1328C69.1559 44.0234 69.7028 41.2734 70.7966 38.8828C71.9059 36.4766 73.4684 34.6328 75.4841 33.3516C77.4997 32.0547 79.82 31.4062 82.445 31.4062C85.07 31.4062 87.3825 32.0391 89.3825 33.3047C91.3981 34.5703 92.9528 36.3594 94.0466 38.6719C95.1403 40.9844 95.7106 43.6641 95.7575 46.7109V50.7891ZM92.8747 47.0859C92.8747 42.9766 91.945 39.7578 90.0856 37.4297C88.2262 35.1016 85.6794 33.9375 82.445 33.9375C79.2731 33.9375 76.7419 35.1094 74.8512 37.4531C72.9762 39.7812 72.0387 43.0391 72.0387 47.2266V50.7891C72.0387 54.8359 72.9762 58.0469 74.8512 60.4219C76.7262 62.7812 79.2731 63.9609 82.4919 63.9609C85.7575 63.9609 88.3044 62.7969 90.1325 60.4688C91.9606 58.125 92.8747 54.8672 92.8747 50.6953V47.0859ZM126.632 66H123.726V49.6406H104.226V66H101.343V31.875H104.226V47.2031H123.726V31.875H126.632V66ZM157.812 55.3594C157.421 58.9531 156.132 61.7031 153.944 63.6094C151.772 65.5156 148.874 66.4688 145.249 66.4688C142.718 66.4688 140.476 65.8359 138.522 64.5703C136.585 63.3047 135.085 61.5156 134.022 59.2031C132.96 56.875 132.421 54.2188 132.405 51.2344V46.8047C132.405 43.7734 132.937 41.0859 133.999 38.7422C135.062 36.3984 136.585 34.5938 138.569 33.3281C140.569 32.0469 142.866 31.4062 145.46 31.4062C149.116 31.4062 151.999 32.3984 154.108 34.3828C156.233 36.3516 157.468 39.0781 157.812 42.5625H154.905C154.187 36.7656 151.038 33.8672 145.46 33.8672C142.366 33.8672 139.897 35.0234 138.054 37.3359C136.226 39.6484 135.312 42.8438 135.312 46.9219V51.0938C135.312 55.0312 136.202 58.1719 137.983 60.5156C139.78 62.8594 142.202 64.0312 145.249 64.0312C148.265 64.0312 150.538 63.3125 152.069 61.875C153.601 60.4219 154.546 58.25 154.905 55.3594H157.812ZM174.53 53.7422L184.233 31.875H187.632L174.436 60.4453L173.592 62.0625C171.936 65.0156 169.499 66.4922 166.28 66.4922C165.327 66.4922 164.592 66.4062 164.077 66.2344L164.335 63.8906C164.663 64 165.319 64.0547 166.303 64.0547C168.241 64.0547 169.796 63.0625 170.967 61.0781L171.553 60.0234L173.03 56.9766L160.116 31.875H163.421L174.53 53.7422ZM215.342 31.875V66H212.459V34.3359H198.045L197.248 48.4453C196.936 53.4922 196.452 57.1641 195.795 59.4609C195.155 61.7422 194.233 63.3984 193.03 64.4297C191.842 65.4453 190.225 65.9688 188.178 66H186.959V63.5625L187.897 63.5391C189.506 63.4609 190.717 62.9531 191.53 62.0156C192.342 61.0781 192.967 59.5625 193.405 57.4688C193.858 55.3594 194.209 52.1094 194.459 47.7188L195.303 31.875H215.342ZM225.1 46.6875H233.561C235.889 46.6875 237.904 47.0781 239.607 47.8594C241.311 48.625 242.607 49.7344 243.498 51.1875C244.404 52.625 244.857 54.3281 244.857 56.2969C244.857 59.3125 243.85 61.6875 241.834 63.4219C239.818 65.1406 237.029 66 233.467 66H222.217V31.875H225.1V46.6875ZM225.1 49.1484V63.5625H233.537C236.178 63.5625 238.24 62.9141 239.725 61.6172C241.209 60.3047 241.951 58.5156 241.951 56.25C241.951 54.0938 241.232 52.3828 239.795 51.1172C238.357 49.8359 236.342 49.1797 233.748 49.1484H225.1ZM266.943 34.3359H255.248V66H252.365V34.3359H240.693V31.875H266.943V34.3359ZM287.341 56.4375H271.849L268.333 66H265.31L278.224 31.875H280.966L293.88 66H290.88L287.341 56.4375ZM272.74 53.9766H286.427L279.583 35.3906L272.74 53.9766ZM297.122 31.875H300.028V63.5625H319.341V31.875H322.224V63.5156H325.575L325.364 74.2266H322.693V66H297.122V31.875ZM333.341 66H330.458V31.875H333.341V66ZM359.176 66V52.1016H349.356L341.903 66H338.786L346.825 51.3047C344.622 50.5391 342.942 49.3828 341.786 47.8359C340.629 46.2891 340.051 44.3984 340.051 42.1641C340.051 38.9453 341.067 36.4297 343.098 34.6172C345.145 32.7891 348.02 31.875 351.723 31.875H362.082V66H359.176ZM342.934 42.1406C342.934 44.3906 343.637 46.2031 345.043 47.5781C346.465 48.9531 348.418 49.6406 350.903 49.6406H359.176V34.3359H351.629C348.848 34.3359 346.7 35.0156 345.184 36.375C343.684 37.7188 342.934 39.6406 342.934 42.1406Z" fill="white"/>
</svg>
