<svg width="43" height="58" viewBox="0 0 43 58" fill="none" xmlns="http://www.w3.org/2000/svg">
<g filter="url(#filter0_d)">
<path d="M21.5 0C11.8456 0 4 7.84583 4 17.5C4 20.7667 4.90436 23.9459 6.6251 26.6876L20.3137 49.089C20.5472 49.4681 20.8972 49.7016 21.3057 49.7599C21.8596 49.8473 22.4724 49.6141 22.7932 49.0599L36.5209 26.4542C38.1541 23.7709 39 20.6501 39 17.5C39 7.84583 31.1544 0 21.5 0ZM21.5 26.25C16.6002 26.25 12.75 22.2833 12.75 17.5C12.75 12.6874 16.6874 8.75 21.5 8.75C26.3126 8.75 30.25 12.6874 30.25 17.5C30.25 22.2542 26.4582 26.25 21.5 26.25Z" fill="#FD003A"/>
</g>
<defs>
<filter id="filter0_d" x="0" y="0" width="43" height="57.7778" filterUnits="userSpaceOnUse" color-interpolation-filters="sRGB">
<feFlood flood-opacity="0" result="BackgroundImageFix"/>
<feColorMatrix in="SourceAlpha" type="matrix" values="0 0 0 0 0 0 0 0 0 0 0 0 0 0 0 0 0 0 127 0"/>
<feOffset dy="4"/>
<feGaussianBlur stdDeviation="2"/>
<feColorMatrix type="matrix" values="0 0 0 0 0 0 0 0 0 0 0 0 0 0 0 0 0 0 0.25 0"/>
<feBlend mode="normal" in2="BackgroundImageFix" result="effect1_dropShadow"/>
<feBlend mode="normal" in="SourceGraphic" in2="effect1_dropShadow" result="shape"/>
</filter>
</defs>
</svg>
