<svg width="35" height="36" viewBox="0 0 35 36" fill="none" xmlns="http://www.w3.org/2000/svg">
<path d="M13.0076 8.3566L11.2334 11.1218C10.814 11.7729 10.6232 12.5451 10.691 13.3166C10.7588 14.088 11.0814 14.8151 11.6078 15.3831L15.477 19.5734L19.6673 23.4425C20.2354 23.9689 20.9624 24.2914 21.7339 24.3592C22.5053 24.427 23.2774 24.2362 23.9286 23.817L26.9269 21.8932L34.4476 29.6708L31.3995 33.5341C30.9131 34.1492 30.2563 34.6073 29.5111 34.8514C28.7659 35.0955 27.9653 35.1148 27.2092 34.9068C21.0396 33.2658 15.6907 29.5936 10.6448 24.4051C5.45626 19.3593 1.78402 14.0104 0.142573 7.84077C-0.0652123 7.08472 -0.0458 6.28422 0.198389 5.53913C0.442577 4.79404 0.900734 4.13733 1.51571 3.65092L5.40251 0.583954L13.0076 8.3566Z" fill="#EF5261"/>
<path d="M27.0126 21.8381L26.5609 22.1276L34.2966 29.8619L34.4659 29.6473C34.8431 29.1692 35.0315 28.5693 34.9953 27.9614C34.9592 27.3535 34.701 26.7801 34.2699 26.35L30.0976 22.1778C29.6987 21.7788 29.1756 21.5278 28.6148 21.466C28.054 21.4043 27.4888 21.5355 27.0126 21.8381V21.8381Z" fill="#DA364C"/>
<path d="M5.40273 0.583949L5.18817 0.753332L12.9225 8.48849L13.212 8.0368C13.5146 7.56072 13.6459 6.99575 13.5843 6.43502C13.5228 5.87428 13.2719 5.35128 12.8732 4.95222L8.70097 0.779982C8.27085 0.348622 7.69724 0.0903256 7.08916 0.0541839C6.48107 0.0180422 5.88091 0.206575 5.40273 0.583949V0.583949Z" fill="#DA364C"/>
</svg>
