<svg width="39" height="30" viewBox="0 0 39 30" fill="none" xmlns="http://www.w3.org/2000/svg">
<path d="M15.4715 21.4286L25.3325 15L15.4715 8.57143V21.4286ZM37.4355 4.65C37.6825 5.65714 37.8535 7.00714 37.9675 8.72143C38.1005 10.4357 38.1575 11.9143 38.1575 13.2L38.2715 15C38.2715 19.6929 37.9675 23.1429 37.4355 25.35C36.9605 27.2786 35.8585 28.5214 34.1485 29.0571C33.2555 29.3357 31.6215 29.5286 29.1135 29.6571C26.6435 29.8071 24.3825 29.8714 22.2925 29.8714L19.2715 30C11.3105 30 6.35148 29.6571 4.39448 29.0571C2.68448 28.5214 1.58248 27.2786 1.10748 25.35C0.860485 24.3429 0.689485 22.9929 0.575485 21.2786C0.442485 19.5643 0.385484 18.0857 0.385484 16.8L0.271484 15C0.271484 10.3071 0.575485 6.85714 1.10748 4.65C1.58248 2.72143 2.68448 1.47857 4.39448 0.942857C5.28748 0.664286 6.92148 0.471428 9.42948 0.342857C11.8995 0.192857 14.1605 0.128571 16.2505 0.128571L19.2715 0C27.2325 0 32.1915 0.342857 34.1485 0.942857C35.8585 1.47857 36.9605 2.72143 37.4355 4.65Z" fill="#EEEEEE"/>
</svg>
