<svg width="39" height="30" viewBox="0 0 39 30" fill="none" xmlns="http://www.w3.org/2000/svg">
<path d="M15.6 21.4286L25.7205 15L15.6 8.57143V21.4286ZM38.142 4.65C38.3955 5.65714 38.571 7.00714 38.688 8.72143C38.8245 10.4357 38.883 11.9143 38.883 13.2L39 15C39 19.6929 38.688 23.1429 38.142 25.35C37.6545 27.2786 36.5235 28.5214 34.7685 29.0571C33.852 29.3357 32.175 29.5286 29.601 29.6571C27.066 29.8071 24.7455 29.8714 22.6005 29.8714L19.5 30C11.3295 30 6.24 29.6571 4.2315 29.0571C2.4765 28.5214 1.3455 27.2786 0.858 25.35C0.6045 24.3429 0.429 22.9929 0.312 21.2786C0.1755 19.5643 0.117 18.0857 0.117 16.8L0 15C0 10.3071 0.312 6.85714 0.858 4.65C1.3455 2.72143 2.4765 1.47857 4.2315 0.942857C5.148 0.664286 6.825 0.471428 9.399 0.342857C11.934 0.192857 14.2545 0.128571 16.3995 0.128571L19.5 0C27.6705 0 32.76 0.342857 34.7685 0.942857C36.5235 1.47857 37.6545 2.72143 38.142 4.65Z" fill="#EEEEEE"/>
</svg>
